<svg width="234" height="127" viewBox="0 0 234 127" fill="none" xmlns="http://www.w3.org/2000/svg">
<g clip-path="url(#clip0_7_1775)">
<path d="M162.167 37.9029C140.138 31.2281 117.547 24.576 94.3455 22.8727C74.7179 21.4297 55.3707 23.2665 39.7684 28.7394C24.1661 34.2122 13.2755 42.8202 7.67124 53.4632C4.97794 58.5835 3.3424 64.2516 3.93996 70.0316C4.49595 75.393 7.54312 81.1413 14.9916 85.1704C19.0574 87.3687 23.8789 88.9272 28.6511 90.1487C34.2754 91.5848 39.9866 92.7006 45.7301 93.6077C57.3051 95.4342 68.9502 96.2676 80.3858 96.5764C102.327 97.1696 124.013 96.252 144.942 94.332C155.094 93.3992 165.128 92.2331 174.944 90.7512C183.822 89.4094 192.564 87.7623 200.573 85.3669C208.435 83.016 215.804 79.9049 221.217 75.7242C226.639 71.5403 230.369 65.8983 228.387 59.7317C224.896 48.849 206.868 41.1593 191.82 36.2822C170.418 29.3336 147.725 25.1442 125.28 22.1268C119.838 21.3957 114.398 20.7383 108.952 20.1186C106.914 19.8883 104.286 19.6557 102.559 20.1896C100.831 20.7234 103.769 21.2606 104.507 21.3455C109.947 21.959 115.393 22.6226 120.835 23.3537C123.496 23.7101 126.153 24.0853 128.807 24.4793C131.732 24.9115 134.008 25.2663 136.574 25.692C147.13 27.4425 157.668 29.5413 168.005 32.2117C177.303 34.6165 186.736 37.3799 195.341 40.9841C202.476 43.9699 209.37 47.6468 214.114 52.176C219.258 57.091 220.595 62.6532 218.434 67.4812C216.074 72.7445 210.206 76.8612 203.583 80.0101C197.033 83.1242 189.324 85.3239 181.302 87.023C180.848 87.1205 180.396 87.2133 179.943 87.306C179.644 87.37 179.337 87.4276 179.03 87.49C178.467 87.6005 178.697 87.5572 178.817 87.5317C177.701 87.7494 176.577 87.9609 175.447 88.1614C173.392 88.5288 171.325 88.8695 169.237 89.1915C164.663 89.8998 160.023 90.5268 155.36 91.1053C152.974 91.3986 150.575 91.6795 148.162 91.9432C146.956 92.075 145.75 92.2022 144.546 92.3246C144.303 92.3507 144.061 92.372 143.818 92.3981C144.479 92.3311 143.291 92.4519 143.291 92.4519C142.622 92.5173 141.961 92.5843 141.294 92.645C136.382 93.1115 131.434 93.5076 126.449 93.8427C121.464 94.1778 116.335 94.4555 111.228 94.6593C110.98 94.6697 110.732 94.6801 110.484 94.6905C111.459 94.6506 110.211 94.701 110.096 94.703C109.534 94.7257 108.973 94.7436 108.412 94.7615C107.1 94.8044 105.789 94.8425 104.478 94.8807C101.972 94.9456 99.469 95.001 96.9535 95.0346C94.2735 95.0704 91.5795 95.0937 88.8832 95.0872C87.6532 95.0874 86.4172 95.0766 85.189 95.0674C84.4031 95.0611 86.3415 95.0863 85.0748 95.0647C84.8128 95.0626 84.5517 95.0558 84.2977 95.0552C83.5127 95.0443 82.7365 95.0301 81.9533 95.0097C79.3487 94.9526 76.733 94.869 74.1157 94.7508C73.4575 94.7205 72.8071 94.6917 72.1498 94.6567C71.9635 94.6449 70.6391 94.5827 71.8413 94.6407C71.5812 94.6292 71.314 94.6114 71.0548 94.5952C69.6119 94.51 68.1717 94.4106 66.7254 94.3004C65.4813 94.2049 64.2311 94.0986 62.9817 93.9875C62.394 93.9318 61.7984 93.8746 61.2107 93.8189C61.1061 93.8083 59.7963 93.6709 60.7846 93.7751C60.3911 93.7328 59.9975 93.6904 59.604 93.6481C56.9802 93.3527 54.3568 93.0135 51.7434 92.6224C50.3252 92.41 49.9275 92.3473 48.413 92.082C46.8985 91.8168 45.5447 91.5681 44.1077 91.2837C41.6683 90.7994 39.0879 90.2388 36.9549 89.6968C32.4062 88.5481 27.8676 87.1375 23.9935 85.0498C20.5205 83.177 17.9009 80.8789 16.1994 78.3293C12.6956 73.0738 12.8558 67.5291 13.9182 62.5314C16.2846 51.4198 24.5572 41.5598 37.237 34.6291C43.2745 31.3272 50.3183 28.7538 58.0507 26.9398C60.0871 26.4612 61.6246 26.1445 63.594 25.7995C65.5634 25.4544 67.5738 25.1516 69.6066 24.902C70.1187 24.8403 70.623 24.7771 71.1421 24.7217C71.4017 24.6941 71.6534 24.6648 71.913 24.6371C72.0889 24.6176 72.7901 24.5536 72.0722 24.6192C73.1579 24.5177 74.2506 24.4224 75.3484 24.3427C76.338 24.2713 77.3416 24.2124 78.3443 24.1582C78.6178 24.143 80.2758 24.0502 79.1394 24.1174C79.77 24.0788 80.418 24.0778 81.0608 24.0612C82.1309 24.0396 83.1992 24.0275 84.2815 24.0279C84.4951 24.0255 84.7158 24.0293 84.9285 24.0316C86.0187 24.0336 84.1031 24.0177 84.8142 24.0289C85.4111 24.0375 86.0071 24.0508 86.6031 24.0642C87.6877 24.0943 88.7785 24.1355 89.8674 24.186C90.0378 24.1948 90.3351 24.1842 90.5247 24.221C89.3202 24.0063 90.1758 24.202 90.573 24.2256C91.1723 24.2639 91.7795 24.3039 92.3779 24.347C93.5421 24.4317 94.7018 24.54 95.8693 24.6498C97.1986 24.7716 95.0033 24.5498 96.3279 24.6951C96.5932 24.7222 96.8655 24.7557 97.1308 24.7828C97.9328 24.8753 98.7347 24.9678 99.5427 25.0712C100.879 25.2431 102.212 25.4291 103.55 25.6308C103.82 25.6736 104.084 25.7102 104.354 25.753C105.644 25.9502 104.013 25.6964 104.768 25.8188C105.523 25.9413 106.238 26.0608 106.967 26.188C117.777 28.0708 128.383 30.8327 138.841 33.8492C143.988 35.3343 149.107 36.8822 154.217 38.4333C156.223 39.0385 158.803 39.0956 160.743 38.9405C161.444 38.8812 164.166 38.5018 162.184 37.9012L162.167 37.9029Z" fill="#29A2BA"/>
</g>
<defs>
<clipPath id="clip0_7_1775">
<rect width="220.765" height="86.4392" fill="white" transform="translate(16.5049) rotate(11.0078)"/>
</clipPath>
</defs>
</svg>
