<svg width="134" height="39" viewBox="0 0 134 39" fill="none" xmlns="http://www.w3.org/2000/svg">
<path d="M93.5711 10.5214C80.4776 6.8 67.0538 3.07917 53.3644 1.7973C41.7834 0.711806 30.4295 1.25563 21.3488 3.67067C12.268 6.08572 6.02001 10.1422 2.92226 15.3062C1.43364 17.7906 0.578019 20.5664 1.03901 23.4396C1.46762 26.1049 3.36997 29.0088 7.83065 31.1446C10.2654 32.3099 13.1331 33.1728 15.9653 33.8678C19.3031 34.6852 22.6861 35.3457 26.0841 35.9034C32.9322 37.0265 39.8028 37.6593 46.5401 38.0283C59.4668 38.7368 72.2147 38.6922 84.4984 38.1371C90.4567 37.8671 96.3408 37.4794 102.091 36.9311C107.292 36.4345 112.406 35.7842 117.076 34.7495C121.659 33.734 125.938 32.3328 129.046 30.365C132.158 28.3957 134.247 25.6726 132.964 22.5817C130.703 17.1271 119.946 12.9787 110.995 10.2794C98.2661 6.43425 84.8288 3.9309 71.5595 2.01261C68.3425 1.54775 65.1281 1.11943 61.9101 0.709616C60.7061 0.557085 59.1549 0.392239 58.1482 0.623926C57.1415 0.855613 58.8808 1.17713 59.3167 1.23311C62.5305 1.63969 65.7491 2.07124 68.9661 2.5361C70.5393 2.76286 72.1107 2.99887 73.6803 3.24415C75.4103 3.51342 76.7568 3.73211 78.275 3.99142C84.5222 5.05772 90.765 6.2961 96.9001 7.81373C102.419 9.18022 108.024 10.7268 113.157 12.6741C117.413 14.2874 121.541 16.2384 124.419 18.5707C127.54 21.1016 128.432 23.881 127.251 26.2308C125.962 28.7923 122.585 30.7198 118.746 32.1539C114.949 33.5721 110.453 34.5156 105.763 35.2053C105.498 35.245 105.233 35.2823 104.969 35.3197C104.794 35.3457 104.614 35.3685 104.435 35.3936C104.106 35.4376 104.24 35.4205 104.31 35.4101C103.657 35.4969 103 35.5803 102.338 35.6583C101.135 35.8013 99.9251 35.931 98.7021 36.0509C96.0233 36.3152 93.3039 36.538 90.5698 36.7363C89.171 36.8365 87.7638 36.9302 86.3485 37.0152C85.6409 37.0576 84.9337 37.0978 84.227 37.1357C84.0845 37.144 83.9425 37.15 83.8 37.1583C84.1877 37.1376 83.4908 37.175 83.4908 37.175C83.0984 37.1947 82.7107 37.2154 82.3188 37.2328C79.4362 37.371 76.5313 37.4736 73.6034 37.5453C70.6754 37.6171 67.6612 37.6576 64.6589 37.662C64.5131 37.6625 64.3673 37.6629 64.2215 37.6634C64.7949 37.662 64.0612 37.6634 63.9935 37.6623C63.6631 37.6628 63.3332 37.6611 63.0033 37.6594C62.2317 37.6558 61.4607 37.6499 60.6896 37.644C59.2161 37.6288 57.7435 37.609 56.2634 37.578C54.6865 37.5451 53.1012 37.5057 51.5138 37.4515C50.7898 37.4284 50.0621 37.3997 49.339 37.3719C48.8762 37.3539 50.0177 37.4031 49.2716 37.3684C49.1174 37.3624 48.9636 37.3541 48.814 37.3491C48.3517 37.3288 47.8945 37.3071 47.4331 37.2822C45.8989 37.2047 44.3576 37.1138 42.8147 37.0059C42.4267 36.9784 42.0433 36.9519 41.6557 36.9221C41.5458 36.9127 40.765 36.8569 41.4738 36.9084C41.3205 36.8977 41.1629 36.8839 41.01 36.871C40.159 36.8015 39.3094 36.7251 38.456 36.6431C37.7218 36.5724 36.9839 36.4961 36.2464 36.4175C35.8993 36.3788 35.5476 36.3392 35.2006 36.3005C35.1389 36.2933 34.3653 36.2005 34.949 36.2708C34.7166 36.2424 34.4841 36.214 34.2516 36.1856C32.7016 35.9897 31.1509 35.7722 29.6052 35.5291C28.7664 35.3972 28.531 35.3586 27.6345 35.1986C26.738 35.0386 25.9364 34.8899 25.0852 34.7219C23.6401 34.436 22.1106 34.1097 20.8447 33.801C18.1455 33.1463 15.4471 32.362 13.1273 31.255C11.0475 30.2621 9.46205 29.0746 8.41228 27.78C6.25046 25.1115 6.23997 22.369 6.77087 19.9144C7.95383 14.4572 12.6371 9.73131 19.97 6.53916C23.4615 5.01834 27.5592 3.8772 32.0765 3.12513C33.2662 2.92663 34.1652 2.7989 35.318 2.66527C36.4707 2.53165 37.6484 2.41968 38.8403 2.3345C39.1406 2.31366 39.4362 2.29191 39.7408 2.27429C39.893 2.26549 40.0406 2.25577 40.1929 2.24696C40.2961 2.24062 40.7077 2.2222 40.2863 2.24111C40.9235 2.21134 41.5649 2.1848 42.2096 2.16611C42.7908 2.14946 43.3804 2.13927 43.9696 2.13139C44.1304 2.12903 45.1046 2.11439 44.4369 2.12621C44.8074 2.11903 45.1888 2.13077 45.5669 2.13466C46.1964 2.14424 46.825 2.15844 47.462 2.17908C47.5878 2.18192 47.7177 2.18799 47.843 2.19314C48.4847 2.2147 47.3568 2.17063 47.7757 2.18965C48.1272 2.20519 48.4783 2.22305 48.8293 2.2409C49.4684 2.27634 50.1112 2.31733 50.7531 2.36294C50.8537 2.37048 51.0284 2.37085 51.1407 2.3927C50.4276 2.26359 50.935 2.3767 51.1693 2.39585C51.5228 2.42618 51.8809 2.45743 52.234 2.49008C52.9209 2.55405 53.6056 2.62959 54.2949 2.70604C55.0797 2.79144 53.7832 2.64013 54.5657 2.7371C54.7224 2.75557 54.8833 2.77726 55.04 2.79573C55.5138 2.85667 55.9876 2.91762 56.4652 2.9841C57.2548 3.09446 58.0431 3.21177 58.8347 3.33693C58.9947 3.36325 59.1504 3.38635 59.3104 3.41267C60.0735 3.53468 59.1083 3.37815 59.5551 3.45306C60.002 3.52797 60.4249 3.60064 60.8568 3.67744C67.2554 4.81403 73.5507 6.38204 79.7637 8.07335C82.8217 8.90598 85.8641 9.76918 88.9013 10.6338C90.0936 10.9714 91.6133 11.0484 92.7527 11.0083C93.1638 10.9922 94.7591 10.8558 93.5809 10.5209L93.5711 10.5214Z" fill="#29A2BA"/>
</svg>
