<svg width="124" height="7" viewBox="0 0 124 7" fill="none" xmlns="http://www.w3.org/2000/svg">
<path d="M3.04681 6.99655C17.4334 6.80621 31.8157 6.61862 46.2023 6.42828C60.5888 6.23793 74.8255 6.0531 89.1371 5.86276L113.356 5.54552C115.113 5.52345 116.853 5.23104 118.464 4.76759C119.933 4.34552 121.757 3.66138 122.801 2.82C123.401 2.33725 124.396 1.51518 123.834 0.844835C123.272 0.174491 122.023 -0.0130955 120.953 0.000697635C106.567 0.191042 92.1843 0.378628 77.7977 0.568973C63.4861 0.756559 49.1745 0.944145 34.8629 1.13449L10.6439 1.45173C8.88718 1.4738 7.14714 1.76621 5.53615 2.22966C4.06669 2.65173 2.2434 3.33587 1.19854 4.17725C0.5991 4.66 -0.395803 5.48207 0.166172 6.15241C0.728146 6.82276 1.97698 7.0131 3.04681 6.99931V6.99655Z" fill="#29A2BA"/>
</svg>
