<svg width="82" height="7" viewBox="0 0 82 7" fill="none" xmlns="http://www.w3.org/2000/svg">
<g clip-path="url(#clip0_2_1820)">
<path d="M2.01783 6.99997C11.5311 6.80951 21.0417 6.62181 30.555 6.43135C40.0683 6.2409 49.4825 6.05596 58.9463 5.8655L74.9615 5.54807C76.1231 5.52599 77.2737 5.2334 78.339 4.76968C79.3107 4.34736 80.5164 3.66282 81.2073 2.82094C81.6037 2.3379 82.2616 1.51534 81.89 0.844603C81.5184 0.173861 80.6926 -0.0138356 79.9851 -3.43737e-05C70.4718 0.190423 60.9613 0.37812 51.4479 0.568578C41.9842 0.756275 32.5204 0.943972 23.0567 1.13443L7.0415 1.45186C5.87986 1.47394 4.72923 1.76653 3.66394 2.23025C2.69224 2.65257 1.48656 3.33711 0.795634 4.17899C0.399246 4.66203 -0.258648 5.48459 0.112966 6.15533C0.484579 6.82607 1.31039 7.01653 2.01783 7.00273V6.99997Z" fill="#29A2BA"/>
</g>
<defs>
<clipPath id="clip0_2_1820">
<rect width="82" height="7" fill="white"/>
</clipPath>
</defs>
</svg>
