<svg width="32" height="32" viewBox="0 0 32 32" fill="none" xmlns="http://www.w3.org/2000/svg">
<g clip-path="url(#clip0_1159_622)">
<mask id="mask0_1159_622" style="mask-type:luminance" maskUnits="userSpaceOnUse" x="0" y="0" width="32" height="32">
<path d="M32 0H0V32H32V0Z" fill="white"/>
</mask>
<g mask="url(#mask0_1159_622)">
<path d="M24.8193 11.2615L16.2186 6.9608C16.1508 6.92685 16.0761 6.90918 16.0003 6.90918C15.9245 6.90918 15.8498 6.92685 15.7821 6.9608L7.1807 11.2615C7.09915 11.3016 7.03056 11.3639 6.98282 11.4412C6.93508 11.5185 6.91012 11.6077 6.91081 11.6986V20.2988C6.90955 20.3901 6.93424 20.48 6.98201 20.5579C7.02978 20.6358 7.09868 20.6986 7.1807 20.7389L15.7821 25.0396C15.85 25.073 15.9246 25.0903 16.0003 25.0903C16.076 25.0903 16.1507 25.073 16.2186 25.0396L24.8206 20.7383C24.9021 20.698 24.9705 20.6354 25.0181 20.5579C25.0656 20.4803 25.0903 20.3909 25.0892 20.3V11.6986C25.0896 11.6078 25.0645 11.5187 25.0168 11.4415C24.9691 11.3642 24.9007 11.3019 24.8193 11.2615ZM20.2029 10.0449L12.9208 13.9139L11.5363 13.2225L18.8184 9.35416L20.2029 10.0449ZM12.4414 14.7646V16.664L12.0453 16.268C12.0002 16.2226 11.9464 16.1866 11.8872 16.1621C11.8281 16.1376 11.7646 16.1252 11.7005 16.1255H10.9591V14.0243L12.4414 14.7646ZM16.0036 7.94193L17.7455 8.81499L10.464 12.6828L8.49089 11.698L16.0036 7.94193ZM15.514 23.8085L7.88711 19.9981V12.489L9.98281 13.5365V16.6157C9.98297 16.7452 10.0345 16.8693 10.1261 16.9607C10.2177 17.0522 10.3418 17.1036 10.4713 17.1036H11.4977L12.5845 18.1904C12.676 18.2815 12.8 18.3326 12.9292 18.3323C13.0585 18.332 13.1823 18.2804 13.2736 18.189C13.3649 18.0976 13.4163 17.9737 13.4165 17.8444V15.253L15.5116 16.3018L15.514 23.8085ZM16 15.4529L13.9949 14.4518L21.277 10.5816L23.511 11.6992L16 15.4529ZM24.1135 19.9981L16.4879 23.8103V16.3018L24.1129 12.4896L24.1135 19.9981Z" fill="#2894A9"/>
<path d="M16 0C12.8355 0 9.74207 0.938384 7.11088 2.69649C4.4797 4.45459 2.42894 6.95345 1.21793 9.87706C0.00693253 12.8007 -0.309921 16.0177 0.307443 19.1214C0.924806 22.2251 2.44866 25.0761 4.6863 27.3137C6.92394 29.5513 9.77487 31.0752 12.8786 31.6926C15.9823 32.3099 19.1993 31.9931 22.1229 30.7821C25.0466 29.5711 27.5454 27.5203 29.3035 24.8891C31.0616 22.2579 32 19.1645 32 16C32 11.7565 30.3143 7.68687 27.3137 4.68629C24.3131 1.68571 20.2435 0 16 0ZM16 30.7925C13.0743 30.7925 10.2144 29.9249 7.78176 28.2995C5.34915 26.6741 3.45317 24.3638 2.33356 21.6608C1.21396 18.9579 0.921017 15.9836 1.49179 13.1141C2.06256 10.2447 3.4714 7.60892 5.54016 5.54016C7.60893 3.47139 10.2447 2.06255 13.1141 1.49178C15.9836 0.92101 18.9579 1.21395 21.6608 2.33356C24.3638 3.45316 26.6741 5.34915 28.2995 7.78175C29.9249 10.2144 30.7925 13.0743 30.7925 16C30.7925 19.9232 29.234 23.6857 26.4599 26.4598C23.6857 29.234 19.9232 30.7925 16 30.7925Z" fill="#2894A9"/>
</g>
</g>
<defs>
<clipPath id="clip0_1159_622">
<rect width="32" height="32" fill="white"/>
</clipPath>
</defs>
</svg>
