<svg width="110" height="22" viewBox="0 0 110 22" fill="none" xmlns="http://www.w3.org/2000/svg">
<g clip-path="url(#clip0_2_1922)">
<path d="M4.42979 20.8511C17.5879 17.5687 30.88 14.8117 44.2627 12.5967C57.5556 10.3928 70.9383 8.72544 84.3647 7.58938C86.265 7.42852 88.1611 7.27915 90.0641 7.13986C90.5269 7.10392 90.9903 7.07337 91.4538 7.04283C91.6852 7.02485 91.9173 7.01228 92.1487 6.99431C91.7869 7.01762 92.2896 6.98217 92.42 6.97682C93.3918 6.91011 94.3643 6.8488 95.3424 6.78679C99.1426 6.55275 102.949 6.36726 106.754 6.22021C107.889 6.17701 109.427 5.67253 109.249 4.29805C109.092 3.03612 107.4 2.17949 106.192 2.22641C92.4522 2.76636 78.7268 3.83572 65.0653 5.46125C51.5953 7.06833 38.187 9.2154 24.8854 11.8968C17.3765 13.416 9.90039 15.1064 2.462 16.9618C1.36789 17.2355 0.164114 18.1364 0.834473 19.3506C1.45207 20.462 3.13145 21.1777 4.43047 20.8565L4.42979 20.8511Z" fill="#29A2BA"/>
</g>
<defs>
<clipPath id="clip0_2_1922">
<rect width="109.558" height="7.77727" fill="white" transform="translate(0 13.5889) rotate(-7.12502)"/>
</clipPath>
</defs>
</svg>
