<svg width="27" height="21" viewBox="0 0 27 21" fill="none" xmlns="http://www.w3.org/2000/svg">
<path d="M25.0472 1.8995C24.4688 1.3288 23.7814 0.880439 23.026 0.581157C22.2706 0.281875 21.4627 0.137808 20.6504 0.157548C19.8341 0.169245 19.0282 0.3431 18.2796 0.669007C17.531 0.994914 16.8547 1.46637 16.29 2.05597L13.8091 4.63947L11.3141 2.05597C10.7495 1.47091 10.0751 1.00279 9.32959 0.678333C8.58405 0.35388 7.78191 0.179448 6.96896 0.164998C5.32713 0.135813 3.74095 0.760036 2.55937 1.90035C1.97431 2.46497 1.50619 3.1393 1.18174 3.88484C0.857282 4.63038 0.682849 5.43252 0.668399 6.24547C0.639214 7.8873 1.26344 9.47348 2.40375 10.6551L11.2532 19.6751C11.3363 19.7605 11.4409 19.8217 11.556 19.8524L13.6355 20.4019C13.7933 20.4444 13.9613 20.4264 14.1065 20.3514L16.325 19.2161C16.3831 19.1851 16.4368 19.1465 16.4848 19.1014L25.1996 10.6517C25.906 9.9219 26.4221 9.02951 26.7022 8.0532C26.9823 7.0769 27.018 6.04666 26.806 5.05334C26.5512 3.84822 25.9372 2.74861 25.0448 1.8995" fill="#91BE98"/>
</svg>
