<svg width="28" height="26" viewBox="0 0 28 26" fill="none" xmlns="http://www.w3.org/2000/svg">
<path fill-rule="evenodd" clip-rule="evenodd" d="M24.2159 14.7543C24.8453 15.026 25.4903 15.266 26.1354 15.5059C26.2736 15.5868 26.4102 15.6629 26.5435 15.7373C26.8314 15.8976 27.1045 16.0498 27.3478 16.2242C27.5259 16.3517 27.7547 16.702 27.6918 16.829C27.5976 17.0196 27.2791 17.2573 27.0705 17.2727C26.525 17.3191 25.9149 17.3335 25.3676 17.221C23.6455 16.8831 21.9548 16.4817 20.2475 16.0326C19.249 15.7759 18.3289 15.3604 17.614 14.6116C17.2238 14.1815 16.9775 13.704 17.2603 13.1324C17.543 12.5608 18.0875 12.4349 18.6505 12.5157C19.1812 12.5805 19.6971 12.7566 20.1972 12.9644C20.875 13.2601 21.5408 13.5597 22.2066 13.8594C22.8724 14.159 23.5382 14.4586 24.2159 14.7543ZM0.521556 8.37172C0.262325 8.16445 -0.0135796 7.90948 0.141719 7.4329C0.325547 7.48428 0.511304 7.53499 0.698447 7.58612L0.69898 7.58625C1.44662 7.79038 2.21683 8.00071 2.97762 8.28209C5.21824 9.03453 7.42747 9.85043 9.63668 10.6664C9.94309 10.7784 10.2503 10.9699 10.5096 11.1771C11.0613 11.6871 11.1653 12.3709 10.8014 12.8628C10.4375 13.3548 9.89201 13.4012 9.18146 13.0498C8.35748 12.6028 7.48548 12.1715 6.64574 11.7562C6.19247 11.5321 5.73739 11.3114 5.28355 11.0914L5.28345 11.0913L5.28339 11.0913C4.3792 10.6529 3.47981 10.2168 2.60867 9.75967C1.98964 9.45352 1.4252 9.0371 0.86071 8.62066C0.747779 8.53743 0.634902 8.4541 0.521556 8.37172ZM19.1548 0.117433C19.0438 0.254134 18.927 0.390877 18.8095 0.528561C18.4906 0.902014 18.1659 1.28234 17.9357 1.6883L17.7559 1.97893C16.4133 4.14954 15.0863 6.29473 13.8041 8.4983C13.5833 8.86344 13.4603 9.35595 13.449 9.7851C13.4072 10.3573 13.9397 10.5811 14.3856 10.2483C14.6404 10.0582 14.8464 9.80428 14.972 9.55026C16.561 6.58126 18.0853 3.58037 19.3189 0.435706C19.3503 0.372188 19.3494 0.292693 19.3485 0.213252L19.1548 0.117433ZM13.1999 16.7367C13.4155 16.3822 13.631 16.0276 13.8357 15.6678C13.9003 15.6997 13.9649 15.7317 14.0775 15.7479C14.0308 15.8829 13.9962 16.014 13.9615 16.145C13.9268 16.2761 13.8922 16.4071 13.8455 16.5421C13.4171 17.7334 12.9927 18.9167 12.5683 20.1C12.1438 21.2833 11.7194 22.4666 11.291 23.6579C11.2129 23.8564 11.1429 24.0589 11.0729 24.2614C11.0029 24.464 10.9329 24.6665 10.8548 24.865C10.6978 25.1826 10.4429 25.3727 10.0886 25.2765C9.70188 25.1643 9.53777 24.846 9.59792 24.4805C9.64326 24.2263 9.7043 23.9403 9.82995 23.6862C10.0021 23.2985 10.1733 22.9079 10.3448 22.5163C10.8759 21.3042 11.4112 20.0826 11.9929 18.9064C12.3378 18.1547 12.7689 17.4457 13.1999 16.7367Z" fill="#1F94AA"/>
</svg>
