<svg width="208" height="7" viewBox="0 0 208 7" fill="none" xmlns="http://www.w3.org/2000/svg">
<path d="M5.11078 6.99655C29.243 6.80621 53.3683 6.61862 77.5006 6.42828C101.633 6.23793 125.514 6.0531 149.52 5.86276L190.146 5.54552C193.092 5.52345 196.011 5.23104 198.714 4.76759C201.178 4.34552 204.237 3.66138 205.99 2.82C206.995 2.33725 208.664 1.51518 207.721 0.844835C206.779 0.174491 204.684 -0.0130955 202.889 0.000697635C178.757 0.191042 154.632 0.378628 130.499 0.568973C106.493 0.756559 82.4863 0.944145 58.4797 1.13449L17.8542 1.45173C14.9075 1.4738 11.9888 1.76621 9.28644 2.22966C6.82155 2.65173 3.76312 3.33587 2.01045 4.17725C1.00494 4.66 -0.663927 5.48207 0.27874 6.15241C1.22141 6.82276 3.31622 7.0131 5.11078 6.99931V6.99655Z" fill="#29A2BA"/>
</svg>
