<svg width="83" height="29" viewBox="0 0 83 29" fill="none" xmlns="http://www.w3.org/2000/svg">
<g opacity="0.35">
<path fill-rule="evenodd" clip-rule="evenodd" d="M0.833191 27.6717H4.93123V11.1709H0.833191V27.6717Z" fill="white"/>
<path fill-rule="evenodd" clip-rule="evenodd" d="M2.88231 0.78418C1.29048 0.78418 0.000106812 2.07481 0.000106812 3.66664C0.000106812 5.25847 1.29048 6.54885 2.88231 6.54885C4.47414 6.54885 5.76452 5.25847 5.76452 3.66664C5.76452 2.07481 4.47414 0.78418 2.88231 0.78418Z" fill="white"/>
<path fill-rule="evenodd" clip-rule="evenodd" d="M18.7037 10.8262C14.0593 10.8262 10.2809 14.6046 10.2809 19.2489V27.6717H14.379V19.2489C14.379 16.8644 16.3192 14.9242 18.7037 14.9242C21.0883 14.9242 23.0284 16.8644 23.0284 19.2489V27.6717H27.1265V19.2489C27.1265 14.6046 23.3481 10.8262 18.7037 10.8262Z" fill="white"/>
<path fill-rule="evenodd" clip-rule="evenodd" d="M46.0226 5.7041H41.9245V20.1243C41.9245 24.2862 45.3103 27.6722 49.4721 27.6722H52.7679V23.5741H49.4721C47.5701 23.5741 46.0226 22.0266 46.0226 20.1243V15.2694H51.4873V11.1714H46.0226V5.7041Z" fill="white"/>
<path fill-rule="evenodd" clip-rule="evenodd" d="M66.1272 23.5799C63.8111 24.4289 61.2357 23.2351 60.3866 20.9187C59.5376 18.6023 60.7314 16.0272 63.0478 15.1781C65.3642 14.3291 67.9396 15.5226 68.7886 17.8393C69.6377 20.1557 68.4436 22.7308 66.1272 23.5799ZM81.8896 13.0372C81.3415 11.5419 79.6851 10.774 78.1898 11.3224C77.3779 11.6197 76.7832 12.2455 76.4942 12.9934L76.4927 12.9893C75.96 14.3672 73.756 16.3427 70.6174 13.2533L70.6187 13.2572C68.3228 11.0022 64.8466 10.1293 61.6294 11.3085C57.1794 12.9398 54.886 17.8869 56.5171 22.3369C58.1481 26.7871 63.0954 29.0805 67.5457 27.4495C70.7626 26.2702 72.8513 23.3578 73.1464 20.1531L73.1479 20.157C73.5465 15.7711 76.505 15.8543 77.8023 16.5615L77.8008 16.5576C78.5043 16.9418 79.3626 17.0345 80.1745 16.7372C81.6698 16.1891 82.4377 14.5324 81.8896 13.0372Z" fill="white"/>
<path fill-rule="evenodd" clip-rule="evenodd" d="M32.4762 27.6717H36.5743V11.1709H32.4762V27.6717Z" fill="white"/>
<path fill-rule="evenodd" clip-rule="evenodd" d="M34.5252 0.78418C32.9334 0.78418 31.643 2.07481 31.643 3.66664C31.643 5.25847 32.9334 6.54885 34.5252 6.54885C36.1171 6.54885 37.4074 5.25847 37.4074 3.66664C37.4074 2.07481 36.1171 0.78418 34.5252 0.78418Z" fill="white"/>
</g>
</svg>
