<svg width="105" height="40" viewBox="0 0 105 40" fill="none" xmlns="http://www.w3.org/2000/svg">
<path fill-rule="evenodd" clip-rule="evenodd" d="M1.06427 36.3387H6.29791V15.2654H1.06427V36.3387Z" fill="#112D35"/>
<path fill-rule="evenodd" clip-rule="evenodd" d="M3.68122 2.00012C1.64828 2.00012 0.000335693 3.64839 0.000335693 5.68134C0.000335693 7.71428 1.64828 9.36223 3.68122 9.36223C5.71417 9.36223 7.36211 7.71428 7.36211 5.68134C7.36211 3.64839 5.71417 2.00012 3.68122 2.00012Z" fill="#112D35"/>
<path fill-rule="evenodd" clip-rule="evenodd" d="M23.8869 14.8253C17.9555 14.8253 13.1301 19.6507 13.1301 25.5821V36.3389H18.3637V25.5821C18.3637 22.5368 20.8415 20.059 23.8869 20.059C26.9322 20.059 29.41 22.5368 29.41 25.5821V36.3389H34.6436V25.5821C34.6436 19.6507 29.8182 14.8253 23.8869 14.8253Z" fill="#112D35"/>
<path fill-rule="evenodd" clip-rule="evenodd" d="M58.776 8.28333H53.5424V26.6995C53.5424 32.0146 57.8663 36.3389 63.1814 36.3389H67.3906V31.1053H63.1814C60.7524 31.1053 58.776 29.1289 58.776 26.6995V20.4993H65.7551V15.2657H58.776V8.28333Z" fill="#112D35"/>
<path fill-rule="evenodd" clip-rule="evenodd" d="M84.4518 31.1133C81.4938 32.1976 78.2048 30.673 77.1205 27.7147C76.0361 24.7563 77.5608 21.4676 80.5191 20.3833C83.4774 19.299 86.7664 20.8233 87.8508 23.7819C88.9351 26.7402 87.4102 30.0289 84.4518 31.1133ZM104.582 17.649C103.882 15.7394 101.767 14.7588 99.8571 15.4591C98.8202 15.8389 98.0606 16.638 97.6916 17.5931L97.6897 17.5879C97.0093 19.3477 94.1946 21.8706 90.1863 17.9251L90.1879 17.93C87.2558 15.0502 82.8163 13.9354 78.7076 15.4414C73.0245 17.5247 70.0956 23.8427 72.1786 29.5258C74.2616 35.2092 80.5799 38.1381 86.2633 36.0551C90.3717 34.5491 93.0393 30.8297 93.4161 26.7369L93.418 26.7418C93.927 21.1405 97.7054 21.2468 99.3622 22.15L99.3602 22.1451C100.259 22.6357 101.355 22.7541 102.392 22.3744C104.301 21.6744 105.282 19.5587 104.582 17.649Z" fill="#112D35"/>
<path fill-rule="evenodd" clip-rule="evenodd" d="M41.4759 36.3387H46.7095V15.2654H41.4759V36.3387Z" fill="#112D35"/>
<path fill-rule="evenodd" clip-rule="evenodd" d="M44.0926 2.00012C42.0597 2.00012 40.4118 3.64839 40.4118 5.68134C40.4118 7.71428 42.0597 9.36223 44.0926 9.36223C46.1256 9.36223 47.7735 7.71428 47.7735 5.68134C47.7735 3.64839 46.1256 2.00012 44.0926 2.00012Z" fill="#112D35"/>
</svg>
