<svg width="120" height="120" viewBox="0 0 120 120" fill="none" xmlns="http://www.w3.org/2000/svg">
<path d="M59.9991 0.000976567C48.1322 0.000835491 36.5317 3.51967 26.6646 10.1125C16.7976 16.7053 9.10709 26.076 4.56574 37.0396C0.0243971 48.0032 -1.16386 60.0673 1.15123 71.7062C3.46632 83.3452 9.18078 94.0362 17.572 102.427C25.9632 110.819 36.6542 116.533 48.2931 118.848C59.9321 121.163 71.9961 119.975 82.9597 115.434C93.9233 110.892 103.294 103.202 109.887 93.3347C116.48 83.4677 119.999 71.8672 119.998 60.0003C119.998 44.0875 113.677 28.8266 102.425 17.5746C91.1728 6.32256 75.9118 0.00116574 59.9991 0.000976567" fill="#D2EEFC"/>
<path d="M37.1097 113.089C37.0013 112.89 36.9007 112.69 36.7937 112.491C36.5576 112.05 36.3215 111.609 36.0947 111.166C36.0027 110.985 35.9178 110.804 35.8272 110.623C35.5968 110.16 35.3643 109.695 35.1439 109.232C35.0412 109.018 34.9449 108.798 34.8443 108.583C34.6453 108.155 34.4435 107.722 34.2516 107.291C34.1403 107.038 34.0376 106.786 33.9263 106.533C33.7544 106.137 33.5804 105.74 33.4156 105.343C33.3222 105.116 33.2344 104.888 33.1438 104.662C32.9719 104.237 32.7979 103.815 32.6345 103.391C32.5589 103.196 32.4919 103 32.4148 102.806C32.2444 102.354 32.0718 101.901 31.9084 101.45C31.825 101.219 31.7479 100.987 31.6652 100.756C31.5225 100.341 31.3713 99.9268 31.2329 99.513C31.1616 99.3055 31.0995 99.1015 31.0311 98.8939C30.8884 98.4588 30.7457 98.0237 30.6066 97.5922C30.5353 97.3696 30.4747 97.1513 30.4062 96.9302C30.2785 96.5158 30.1494 96.0999 30.0289 95.6862C29.9683 95.4772 29.9119 95.2704 29.8534 95.0628C29.7329 94.6413 29.6116 94.2197 29.4968 93.8039C29.4376 93.5899 29.3855 93.3759 29.3277 93.1619C29.2207 92.7567 29.1137 92.3509 29.0089 91.9493C28.9554 91.7353 28.9076 91.5292 28.8548 91.318C28.7557 90.9186 28.6558 90.5163 28.5624 90.1211C28.516 89.925 28.4746 89.7338 28.4304 89.5391C28.337 89.1368 28.2435 88.7331 28.1572 88.3365C28.1094 88.1153 28.0666 87.8999 28.0203 87.6802C27.9418 87.3122 27.8626 86.9434 27.7899 86.5803C27.7692 86.4812 27.7528 86.3856 27.7321 86.2865C27.6386 85.8114 27.5452 85.3392 27.4589 84.8756C27.4396 84.7686 27.4218 84.6659 27.4025 84.5582C27.3205 84.1066 27.2378 83.6566 27.1622 83.2157L27.1458 83.1145C27.0592 82.608 26.9774 82.1087 26.9004 81.6165C26.8783 81.4739 26.859 81.3391 26.8369 81.1993C26.6985 80.2977 26.5723 79.416 26.4624 78.5786V78.5551C26.4004 78.08 26.3419 77.615 26.2884 77.162C26.2748 77.0429 26.262 76.9302 26.2484 76.8104C26.2099 76.4737 26.1714 76.1363 26.1357 75.8118C26.13 75.7497 26.125 75.6927 26.1179 75.632C25.7955 72.5649 25.6621 70.1397 25.6072 68.594C25.5986 68.3236 25.5922 68.0861 25.5865 67.8721C25.5794 67.6332 25.5758 67.4285 25.5744 67.2601C25.5744 67.238 25.5744 67.2095 25.5744 67.1888L18.4272 64.0596C18.5698 75.6092 20.4051 96.8389 30.6659 114.815L38.179 114.984C38.0691 114.795 37.965 114.605 37.8594 114.417C37.6069 113.976 37.353 113.535 37.1097 113.091" fill="white"/>
<path d="M11.0867 60.8403C11.2101 67.7413 11.7138 74.6303 12.5953 81.4759C14.141 93.6211 16.6675 104.524 20.1112 113.896C23.1969 114.241 26.0187 114.531 29.0331 114.731C18.8123 96.3138 17.0997 74.8159 17.0184 63.4453L11.0867 60.8403Z" fill="white"/>
<path d="M28.1586 80.5478C28.6058 83.5322 29.2214 86.8554 30.0681 90.3712L30.0845 90.4369C30.2424 91.0902 30.4088 91.7496 30.5838 92.4148C30.6266 92.5782 30.673 92.7444 30.7172 92.9091C30.8598 93.432 31.0025 93.9591 31.1509 94.4891C31.2165 94.7237 31.2878 94.9598 31.357 95.1945C31.493 95.6615 31.6326 96.1301 31.7757 96.6004C31.8592 96.8708 31.9462 97.1411 32.0325 97.4129C32.1751 97.8522 32.3142 98.2945 32.4605 98.736C32.5556 99.0299 32.6554 99.3242 32.76 99.6191C32.9056 100.043 33.0551 100.468 33.2087 100.893C33.32 101.2 33.4327 101.506 33.5461 101.815C33.7025 102.234 33.8628 102.652 34.0269 103.071C34.1474 103.385 34.2715 103.696 34.3978 104.009C34.5652 104.425 34.7373 104.841 34.9142 105.256C35.0476 105.571 35.1788 105.885 35.3165 106.199C35.4977 106.618 35.6888 107.035 35.8793 107.454C36.0219 107.763 36.1596 108.072 36.3037 108.381C36.5084 108.813 36.721 109.244 36.9335 109.674C37.0762 109.965 37.2188 110.256 37.3615 110.547C37.6062 111.025 37.8608 111.502 38.1176 111.978C38.2453 112.215 38.3672 112.455 38.4992 112.691C38.892 113.404 39.2983 114.112 39.7182 114.816C39.8816 114.744 40.0927 114.648 40.3238 114.544L40.4572 114.483C42.3638 113.617 46.2149 111.821 50.8891 109.383C37.7431 102.397 31.2579 91.123 28.1529 80.5449" fill="white"/>
<path d="M109.759 86.9263C109.474 86.8072 84.1521 75.9124 80.6327 47.7837C80.5692 47.273 80.5064 46.7594 80.4572 46.2366C80.2226 43.6733 80.169 41.0967 80.2967 38.5259C80.3238 38.0537 80.3395 37.5843 80.3802 37.1093C80.3779 37.0714 80.3729 37.0337 80.3652 36.9966L80.3695 36.9295C80.3969 36.8766 80.4173 36.8202 80.4301 36.7619C80.4221 36.7132 80.4092 36.6654 80.3916 36.6193L80.4037 36.4295L80.3416 36.4352C80.2739 36.2795 80.1506 36.1547 79.9957 36.085L78.8644 35.6171C78.9146 35.1837 78.942 34.748 78.9464 34.3118C78.9457 31.1191 77.7359 28.0451 75.5606 25.7082C73.3852 23.3713 70.4057 21.9448 67.2212 21.7157C64.0367 21.4866 60.8837 22.4718 58.3962 24.4733C55.9087 26.4747 54.2714 29.3439 53.8136 32.5036C50.7814 33.3709 47.2513 34.3909 43.4652 35.5044C41.8885 34.2145 40.0201 33.3303 38.023 32.9289C36.0259 32.5276 33.9609 32.6212 32.0083 33.2018C30.0558 33.7823 28.275 34.8321 26.8216 36.2593C25.3683 37.6866 24.2864 39.448 23.6706 41.3898C23.6604 41.4366 23.6554 41.4845 23.6556 41.5324C18.649 43.1238 13.8978 44.698 9.91831 46.1339C9.89334 46.1424 9.88265 46.1667 9.86053 46.1781C9.82258 46.1886 9.78578 46.203 9.75069 46.2209C9.71133 46.2568 9.67637 46.2973 9.64655 46.3414C9.58826 46.3964 9.54185 46.4628 9.5102 46.5364C9.47855 46.61 9.46232 46.6893 9.46252 46.7694C9.46252 46.778 9.45538 46.7844 9.45538 46.7944V46.7987V46.8044L9.71003 59.6322C9.69557 59.6722 9.68506 59.7135 9.67864 59.7556C9.74488 67.079 10.2542 74.3918 11.2037 81.6537C12.785 94.0785 15.3907 105.227 18.9464 114.786C18.9917 114.908 19.07 115.015 19.1725 115.095C19.275 115.175 19.3978 115.225 19.5271 115.239C25.6767 116.018 31.8689 116.414 38.0677 116.422C38.5163 116.422 38.9736 116.422 39.4422 116.415L39.4557 116.411C39.5447 116.409 39.6327 116.392 39.7154 116.359C39.8324 116.308 45.3012 113.927 52.4341 110.163C54.5903 111.225 56.8184 112.135 59.1019 112.884L59.3709 112.971L59.6262 112.847C78.9329 103.481 109.498 88.3536 109.803 88.2017L111.186 87.5169L109.759 86.9263ZM78.3979 37.9053L78.5349 37.8611C78.6597 37.849 78.7902 37.8297 78.9151 37.8183C78.888 38.212 78.8794 38.6029 78.8616 38.9931C78.7413 41.4264 78.8038 43.8654 79.0484 46.2894C79.0927 46.7173 79.1269 47.1453 79.1833 47.5733H79.1776L79.149 47.5826C68.282 51.5007 58.8038 54.7533 48.7813 58.1978C41.8403 60.5823 34.7566 63.0175 26.9974 65.7451C26.9853 65.7494 26.971 65.7537 26.9589 65.7587C26.9339 65.2066 26.9039 64.4405 26.8818 63.5346C26.839 61.8734 26.824 59.7649 26.9104 57.6949C26.9446 56.9895 26.9817 56.381 27.0245 55.8717C27.0452 55.6057 27.0644 55.336 27.0901 55.0785C27.1079 54.881 27.1243 54.7119 27.1393 54.5792V54.5707L46.1578 48.3879C45.3468 51.041 43.5773 53.2974 41.194 54.7176C40.9853 54.1028 40.6075 53.5593 40.1038 53.1496C39.6001 52.7399 38.991 52.4806 38.3466 52.4016C37.8419 52.3754 37.3384 52.4706 36.8781 52.6791C36.4178 52.8876 36.0141 53.2033 35.701 53.5999C34.9968 54.4458 34.5849 55.4966 34.5269 56.5957C34.3635 59.0366 35.8108 61.1301 37.7531 61.2592C37.8187 61.2649 37.8851 61.2664 37.9493 61.2664C38.4206 61.2561 38.8841 61.1429 39.3071 60.9347C39.7301 60.7264 40.1024 60.4282 40.398 60.0609C41.1026 59.2155 41.5136 58.1642 41.5692 57.0651C41.5897 56.7508 41.5833 56.4353 41.55 56.1221C43.1046 55.2627 44.4594 54.0833 45.5248 52.6618C46.5902 51.2403 47.342 49.6091 47.7306 47.8757L76.7381 38.4474C75.933 40.468 74.564 42.2145 72.7943 43.479C72.5231 43.0153 72.1328 42.6325 71.6638 42.3704C71.1949 42.1082 70.6644 41.9763 70.1273 41.9882C68.3797 42.0995 67.0687 43.9704 67.2071 46.1574C67.3405 48.2773 68.7856 49.93 70.469 49.93C70.5225 49.93 70.576 49.93 70.6295 49.9243C72.3785 49.813 73.6866 47.9435 73.5482 45.7551C73.5234 45.4257 73.4658 45.0995 73.3763 44.7815C75.7724 43.1432 77.5376 40.7364 78.3801 37.9588C78.3858 37.941 78.3922 37.9246 78.3979 37.9082M37.2624 56.8568C37.3 57.039 37.4082 57.1989 37.5634 57.3015C37.7186 57.4042 37.9081 57.4412 38.0905 57.4046C38.8011 57.2576 39.4973 57.0483 40.1712 56.779C40.1712 56.8425 40.1783 56.9024 40.1712 56.9659C40.1349 57.7599 39.8426 58.5209 39.338 59.135C39.1593 59.3589 38.9325 59.5398 38.6745 59.6642C38.4165 59.7887 38.1338 59.8536 37.8473 59.854C36.6967 59.7756 35.8179 58.3247 35.9278 56.6827C35.9652 55.8892 36.2567 55.1287 36.7595 54.5136C36.9262 54.3 37.1371 54.125 37.3778 54.0007C37.6185 53.8763 37.8833 53.8055 38.154 53.7932C38.1854 53.7932 38.2196 53.7932 38.2517 53.7932C38.4198 53.8073 38.5842 53.8505 38.7375 53.9209C38.7817 53.9401 38.8209 53.9665 38.8623 53.9879C38.9802 54.0514 39.0907 54.1277 39.1918 54.2155C39.2261 54.2454 39.2589 54.2732 39.2917 54.3061C39.424 54.4352 39.5415 54.5787 39.6419 54.734V54.7383C39.7527 54.9161 39.8451 55.1047 39.918 55.3011C39.9237 55.3147 39.9272 55.3296 39.9315 55.3439C39.2467 55.6419 38.5333 55.8692 37.8023 56.0222C37.712 56.0407 37.6263 56.0768 37.55 56.1284C37.4736 56.18 37.4082 56.2461 37.3575 56.3231C37.3067 56.4 37.2717 56.4861 37.2542 56.5766C37.2368 56.6671 37.2374 56.7601 37.2559 56.8504M68.9261 45.9712C68.9676 46.1181 69.0558 46.2475 69.1775 46.3397C69.2991 46.4318 69.4475 46.4818 69.6002 46.482C69.6656 46.4818 69.7307 46.4722 69.7935 46.4534C70.5917 46.2223 71.3648 45.9116 72.101 45.5261C72.1174 45.6289 72.1366 45.7309 72.1438 45.8378C72.2301 47.2288 71.4947 48.4571 70.536 48.5191C69.5795 48.5398 68.6893 47.4542 68.6016 46.0632C68.5138 44.6723 69.2492 43.444 70.2093 43.382C70.2343 43.382 70.26 43.382 70.2807 43.382C70.4017 43.3831 70.5218 43.4021 70.6373 43.4383C70.658 43.4455 70.6758 43.4576 70.6965 43.4647C70.7976 43.5007 70.8946 43.5471 70.9861 43.6031C70.9954 43.6102 71.0039 43.6181 71.0132 43.6238C71.1369 43.7092 71.2506 43.8082 71.352 43.9191C71.3905 43.9605 71.4234 44.0083 71.4619 44.0525C71.5004 44.0967 71.5403 44.1595 71.5789 44.2144C70.887 44.5892 70.1573 44.8893 69.4019 45.1096C69.3132 45.1346 69.2304 45.1768 69.1581 45.2339C69.0859 45.291 69.0256 45.3618 68.9808 45.4423C68.936 45.5228 68.9075 45.6113 68.897 45.7028C68.8866 45.7943 68.8943 45.887 68.9197 45.9755M66.3019 23.0788C69.2815 23.0794 72.1391 24.2626 74.2469 26.3684C76.3548 28.4743 77.5407 31.3307 77.5441 34.3103C77.5441 34.56 77.5156 34.8046 77.4985 35.05L64.4638 29.6547C64.3194 29.5962 64.1599 29.5862 64.0094 29.6261C63.901 29.6561 60.5007 30.5969 55.3158 32.0749C55.8352 29.5397 57.2126 27.261 59.216 25.6229C61.2194 23.9847 63.7262 23.0873 66.314 23.0817M44.936 36.5365L45.4617 36.3824L46.7192 36.0144L47.3069 35.8425L48.3177 35.5486L49.031 35.341L50.0952 35.0322L50.6309 34.8781C51.1292 34.7355 51.6183 34.5945 52.0981 34.4551L52.713 34.2782L53.6053 34.0215C53.8193 33.9594 54.0333 33.8995 54.2409 33.8403C54.4948 33.7689 54.7459 33.6976 54.9934 33.6263L55.6617 33.4351L56.4514 33.2097C56.5897 33.1712 56.7302 33.1298 56.8658 33.0913L58.0106 32.7675C58.0406 32.7582 58.0748 32.7482 58.1055 32.7404L59.3038 32.4016L59.3409 32.3923L60.2867 32.1248L60.729 32.0014L61.1063 31.8944L61.5906 31.7582L62.1769 31.5948C62.2083 31.5856 62.244 31.5756 62.2761 31.5677L62.9801 31.3701L63.7269 31.1626C63.8974 31.1148 64.0451 31.0748 64.1499 31.0442L77.3066 36.493L77.2902 36.5865C77.2816 36.6342 77.2723 36.6827 77.2631 36.7291C77.2588 36.7541 77.2545 36.7769 77.2495 36.8004L70.7757 38.9046L70.3063 39.0573L47.9824 46.3179C48.0181 45.9377 48.0623 45.559 48.0623 45.1716C48.0623 45.0768 48.0502 44.9862 48.0488 44.8913V44.8614C48.0363 44.4012 47.9987 43.9421 47.9361 43.4861L47.9268 43.4255C47.5654 40.8732 46.4215 38.4958 44.6528 36.6207L44.9381 36.5372M35.5747 34.0856C37.7918 34.0834 39.9579 34.7504 41.7896 35.9994C36.4991 37.5629 30.8049 39.2806 25.3397 41.0032C26.1584 38.9586 27.5714 37.2066 29.396 35.9732C31.2206 34.7398 33.3731 34.0819 35.5754 34.0842M15.6132 45.6396C15.6432 45.6289 15.6724 45.6189 15.7024 45.6096C16.8437 45.2237 18.0213 44.8328 19.2246 44.4384L19.4044 44.3792C20.597 43.9876 21.8175 43.5945 23.0557 43.1987L23.2633 43.133C24.5058 42.7365 25.7634 42.3392 27.0359 41.9411C27.1001 41.9219 27.1636 41.9012 27.2278 41.8805C28.5117 41.4796 29.803 41.0797 31.1017 40.6807C31.1495 40.6672 31.198 40.6522 31.2443 40.6365C32.5496 40.2371 33.8528 39.8403 35.1539 39.446L35.2816 39.4075C36.594 39.0109 37.8958 38.62 39.1868 38.2349C39.2075 38.2277 39.2296 38.2227 39.251 38.2156C40.5456 37.8297 41.8239 37.451 43.0757 37.0815L43.1142 37.0708C45.0428 38.8594 46.2709 41.2768 46.578 43.8891L46.5872 43.9469C46.6332 44.3531 46.6571 44.7614 46.6586 45.1702C46.6586 45.2294 46.6464 45.2872 46.645 45.3457V45.3756C46.6367 45.85 46.5981 46.3234 46.5295 46.7929L32.9091 51.2154L32.8792 51.2261L26.5608 53.2839C26.5345 53.2704 26.4966 53.2511 26.4688 53.2361C25.4417 52.6954 22.2604 51.0534 18.2717 49.2838C17.8665 49.1012 17.4871 48.935 17.1304 48.7845C16.9877 48.7224 16.8365 48.6596 16.7024 48.6047L16.671 48.5912C15.2445 47.9813 13.7523 47.3707 12.2344 46.8022C13.3164 46.422 14.4456 46.0347 15.6111 45.641M12.5732 48.472C13.1788 48.7067 13.8571 48.9713 14.5597 49.2517C15.0497 49.4478 15.5583 49.6511 16.0619 49.8587C16.1404 49.8915 16.2224 49.9229 16.298 49.955C16.5997 50.0855 16.9036 50.2146 17.1975 50.3437L17.2331 50.3587L17.741 50.5855C18.0006 50.7025 18.2595 50.8188 18.5356 50.9464C19.1776 51.2418 19.8495 51.5613 20.5235 51.883C21.1976 52.2047 21.8745 52.5349 22.5101 52.8467C23.9088 53.5314 25.12 54.137 25.7377 54.4473C25.7334 54.4815 25.732 54.5186 25.7284 54.55C25.7177 54.6499 25.7106 54.7561 25.7013 54.856C25.6878 54.9987 25.6742 55.1349 25.6585 55.3061C25.6493 55.4231 25.6364 55.5365 25.6271 55.6549C25.6122 55.8432 25.5972 56.0279 25.5843 56.2191C25.5758 56.3361 25.5736 56.4566 25.5665 56.5757C25.5366 57.0615 25.5087 57.6079 25.4866 58.2078C25.4781 58.4096 25.4731 58.6172 25.4659 58.8312L25.4538 59.369C25.4457 59.7656 25.4412 60.1803 25.4403 60.613V60.7671C25.4403 61.5938 25.4495 62.3705 25.4652 63.091C25.4873 64.1024 25.5187 64.9933 25.5465 65.636L25.5358 65.6303L24.2262 65.0596L22.8631 64.4626L22.5115 64.3078L20.525 63.4362L18.537 62.5567L16.5491 61.6851L14.5611 60.8134L12.5746 59.9418L11.1074 59.2998L10.8798 47.8158C11.3271 47.9877 11.9105 48.2095 12.5753 48.4678M20.112 113.892C16.6689 104.524 14.1417 93.6213 12.596 81.4761C11.7152 74.6304 11.2116 67.7415 11.0874 60.8405L17.0191 63.4419C17.1004 74.8125 18.8131 96.3097 29.0338 114.728C26.0209 114.527 23.1991 114.238 20.112 113.892M30.6687 114.814C20.4058 96.839 18.5684 75.61 18.4272 64.0582L25.5715 67.1931V67.2644C25.5715 67.4321 25.5786 67.6375 25.5836 67.8764C25.5893 68.0904 25.5958 68.328 25.6057 68.5983C25.6592 70.1426 25.7926 72.5728 26.115 75.6349C26.1222 75.697 26.1272 75.754 26.1329 75.8161C26.1685 76.1385 26.2042 76.4766 26.2456 76.8147C26.2591 76.9338 26.272 77.0465 26.2855 77.1664C26.3404 77.6193 26.3982 78.0851 26.4596 78.5594V78.583C26.5694 79.4232 26.6957 80.302 26.834 81.2036C26.8561 81.3462 26.8754 81.4782 26.8975 81.6209C26.9746 82.1111 27.0563 82.6104 27.1429 83.1188L27.1593 83.2201C27.2349 83.6609 27.3169 84.111 27.3997 84.5625C27.4189 84.6695 27.4368 84.7722 27.456 84.8799C27.5423 85.3443 27.6358 85.8165 27.7306 86.2908C27.7499 86.3899 27.7663 86.4841 27.787 86.5847C27.8583 86.947 27.9396 87.3165 28.0174 87.6846C28.0637 87.9043 28.1065 88.1197 28.1543 88.3408C28.2406 88.7374 28.3341 89.1397 28.4275 89.542C28.4718 89.7381 28.5124 89.9293 28.5595 90.1255C28.6529 90.5206 28.7528 90.9229 28.8519 91.3224C28.904 91.5363 28.9518 91.7411 29.006 91.9536C29.1073 92.3545 29.22 92.7611 29.3249 93.1662C29.3826 93.3802 29.4347 93.5942 29.4939 93.8082C29.608 94.224 29.73 94.6456 29.8505 95.0671C29.9112 95.2747 29.9661 95.4816 30.0274 95.6906C30.148 96.1021 30.2771 96.5194 30.4033 96.9345C30.4747 97.1557 30.5353 97.3739 30.6038 97.5965C30.74 98.0245 30.8855 98.4624 31.0282 98.8982C31.0995 99.1058 31.1602 99.3098 31.2301 99.5174C31.3684 99.9304 31.5154 100.346 31.6637 100.76C31.7451 100.992 31.8214 101.223 31.9055 101.455C32.0689 101.906 32.2422 102.358 32.4134 102.81C32.4847 103.005 32.5561 103.2 32.6317 103.395C32.795 103.818 32.9691 104.242 33.141 104.666C33.233 104.893 33.3193 105.119 33.4127 105.347C33.5775 105.744 33.7515 106.14 33.9234 106.538C34.0333 106.79 34.1374 107.043 34.2487 107.295C34.4406 107.723 34.6424 108.156 34.8415 108.587C34.9427 108.801 35.0376 109.021 35.141 109.236C35.3622 109.701 35.594 110.163 35.8244 110.627C35.915 110.808 35.9998 110.989 36.0919 111.17C36.3187 111.614 36.5562 112.054 36.7909 112.495C36.8979 112.694 36.9984 112.894 37.1069 113.093C37.3501 113.537 37.6062 113.979 37.8565 114.419C37.965 114.608 38.0662 114.798 38.1775 114.987L30.6687 114.814ZM50.8955 109.386C46.2185 111.827 42.3674 113.622 40.4636 114.486C40.4173 114.508 40.3759 114.526 40.3302 114.546L39.7247 114.82C39.3033 114.115 38.897 113.407 38.5056 112.693C38.3751 112.456 38.2517 112.217 38.124 111.98C37.8687 111.504 37.6119 111.028 37.3686 110.55C37.2203 110.26 37.0833 109.968 36.9364 109.678C36.7224 109.25 36.5084 108.816 36.308 108.384C36.1653 108.075 36.0227 107.766 35.88 107.456C35.6888 107.039 35.4998 106.62 35.3172 106.202C35.1803 105.887 35.0483 105.573 34.9149 105.259C34.739 104.843 34.5668 104.427 34.3985 104.011C34.2722 103.698 34.1503 103.386 34.0276 103.074C33.864 102.655 33.7037 102.236 33.5468 101.818C33.4327 101.51 33.3202 101.203 33.2094 100.895C33.0558 100.47 32.9068 100.046 32.7622 99.6229C32.6609 99.3276 32.5589 99.0323 32.4619 98.7392C32.3135 98.2969 32.1723 97.8561 32.0339 97.416C31.9476 97.1442 31.8613 96.8739 31.7771 96.6036C31.6345 96.1328 31.4918 95.6663 31.3584 95.1991C31.2871 94.963 31.2158 94.7269 31.1523 94.4922C31.0011 93.9622 30.8584 93.4366 30.7186 92.9123C30.6744 92.7475 30.628 92.5827 30.5852 92.4194C30.4107 91.7537 30.2443 91.0939 30.0859 90.44L30.0695 90.3758C29.2214 86.8571 28.6073 83.5368 28.16 80.5524C31.265 91.1326 37.7503 102.405 50.8962 109.391M107.884 87.5911C102.42 90.2945 80.8303 100.963 64.1549 109.089C63.0431 109.631 61.9554 110.161 60.8916 110.678L59.2703 111.462C34.4206 103.194 28.3305 81.4033 27.1058 67.1931C35.0005 64.4191 42.1962 61.944 49.2371 59.5252C59.1747 56.1114 68.5837 52.8752 79.338 49.007L79.3652 48.9977C80.3673 56.0523 82.9091 62.8 86.8105 68.7624C92.1348 76.7124 99.3837 83.1864 107.883 87.5818L107.884 87.5911Z" fill="#1A94AB"/>
<path d="M86.8084 68.7665C82.8997 62.8076 80.3485 56.0624 79.3352 49.0083C68.5823 52.8779 59.1733 56.1127 49.2343 59.5265C42.1948 61.9453 34.9962 64.419 27.1044 67.1973C28.3291 81.4032 34.4199 103.194 59.2646 111.461L60.8859 110.676C61.9473 110.16 63.035 109.63 64.1492 109.086C80.8246 100.959 102.413 90.2908 107.878 87.5881C99.3793 83.1927 92.1309 76.7178 86.8084 68.7665ZM59.4244 63.7021C60.0613 62.7748 61.3502 62.369 63.5615 62.4182C64.2284 60.0008 65.2734 58.5136 66.5965 58.1035C66.9982 57.9749 67.4277 57.9602 67.8373 58.0609C68.2469 58.1617 68.6206 58.3739 68.9168 58.6741C70.8527 60.585 69.7485 65.5645 68.9168 68.3621C68.8177 68.6923 68.6149 68.9819 68.3385 69.1881C68.0621 69.3942 67.7267 69.506 67.3818 69.5069L67.2321 69.4998C64.1435 69.2637 60.2061 67.8043 59.2824 65.8662C59.1114 65.5246 59.0345 65.1436 59.0596 64.7623C59.0847 64.3811 59.2108 64.0134 59.4251 63.6971M68.4725 87.6645C67.1193 88.4737 65.5725 88.902 63.9958 88.9042C62.4104 88.8539 60.8556 88.4547 59.4422 87.7347C58.0288 87.0148 56.7916 85.992 55.8187 84.7392C53.1681 81.4652 53.6438 78.6135 54.5105 76.7989C56.3543 72.9343 61.6391 70.5419 65.4788 70.5419C65.6648 70.5419 65.8433 70.6158 65.9748 70.7474C66.1064 70.8789 66.1803 71.0573 66.1803 71.2434C66.1803 71.4295 66.1064 71.6079 65.9748 71.7395C65.8433 71.871 65.6648 71.9449 65.4788 71.9449C62.065 71.9449 57.3851 74.0313 55.778 77.4016C55.0861 78.8539 54.7209 81.1507 56.9121 83.8562C57.7587 84.94 58.8303 85.8272 60.053 86.4567C61.2758 87.0863 62.6205 87.4431 63.9944 87.5025C65.3219 87.4997 66.6239 87.1382 67.7627 86.4561C69.2112 85.6267 70.2997 84.2884 70.8167 82.7013C71.3337 81.1142 71.2423 79.3916 70.5603 77.8681C69.6622 75.6155 67.7613 74.4143 65.7099 74.8081C63.8289 75.169 61.8067 77.0193 61.8067 80.2419C61.8067 80.428 61.7328 80.6064 61.6013 80.738C61.4697 80.8696 61.2913 80.9435 61.1052 80.9435C60.9192 80.9435 60.7407 80.8696 60.6092 80.738C60.4776 80.6064 60.4037 80.428 60.4037 80.2419C60.4037 76.2254 63.0158 73.8936 65.4445 73.43C68.1914 72.9015 70.7036 74.4407 71.8642 77.3481C72.6786 79.1821 72.7825 81.2534 72.1557 83.1597C71.529 85.066 70.2163 86.6715 68.4725 87.6645Z" fill="white"/>
<path d="M73.3749 44.779C73.4656 45.0971 73.5237 45.4235 73.5483 45.7534C73.6852 47.9403 72.377 49.8113 70.6295 49.9226C70.576 49.9268 70.5225 49.9283 70.469 49.9283C68.7856 49.9283 67.3391 48.2756 67.2071 46.1557C67.0687 43.9673 68.3783 42.0977 70.1259 41.985C70.6632 41.9732 71.1938 42.1052 71.663 42.3673C72.1321 42.6294 72.5227 43.0121 72.7943 43.4758C74.5633 42.211 75.9319 40.4649 76.7374 38.445L47.7321 47.8747C47.344 49.6083 46.5924 51.2398 45.5269 52.6613C44.4615 54.0829 43.1064 55.2621 41.5514 56.1211C41.5852 56.4342 41.5921 56.7497 41.5721 57.064C41.5154 58.1632 41.1039 59.2143 40.3994 60.0599C40.1039 60.4271 39.7317 60.7253 39.3088 60.9335C38.886 61.1417 38.4227 61.255 37.9514 61.2653C37.8858 61.2653 37.8195 61.2653 37.7538 61.2596C35.8115 61.1291 34.3657 59.0356 34.529 56.5947C34.5859 55.4956 34.9973 54.4445 35.7017 53.5989C36.015 53.2024 36.4186 52.8867 36.8789 52.6782C37.3392 52.4697 37.8427 52.3745 38.3473 52.4005C38.9918 52.4794 39.601 52.7386 40.1047 53.1483C40.6085 53.558 40.9863 54.1016 41.1948 54.7166C43.5781 53.2964 45.3475 51.04 46.1586 48.3868L27.14 54.5682V54.5775C27.1265 54.7123 27.1087 54.8806 27.0908 55.0768C27.0659 55.335 27.0452 55.6039 27.0252 55.87C26.9867 56.3807 26.9453 56.9877 26.9111 57.6932C26.8248 59.7617 26.8398 61.8716 26.8826 63.5329C26.9061 64.4388 26.9346 65.2063 26.9596 65.7569L26.9995 65.7434C34.7573 63.0157 41.841 60.5806 48.7828 58.196C58.8038 54.7537 68.2799 51.4975 79.1476 47.5851L79.1776 47.5744H79.1819C79.1269 47.1514 79.0913 46.7184 79.0485 46.2905C78.8028 43.8675 78.7398 41.4295 78.8602 38.9971C78.8794 38.6055 78.8873 38.2124 78.9151 37.8223C78.7888 37.8344 78.6597 37.8522 78.5335 37.8651L78.3965 37.9093C78.3908 37.9271 78.3844 37.9421 78.3787 37.9599C77.537 40.7379 75.7717 43.1451 73.3749 44.7826" fill="white"/>
<path d="M16.7031 48.604C16.8379 48.6589 16.9885 48.7224 17.1311 48.7837C17.4842 48.9335 17.8658 49.1012 18.2724 49.283C22.2618 51.0513 25.4424 52.6947 26.4695 53.234C26.4966 53.2489 26.5352 53.2696 26.5615 53.2818L32.8792 51.2282L32.9106 51.2189L46.5344 46.7901C46.6002 46.3225 46.6369 45.8513 46.6443 45.3792L46.6486 45.3492C46.6486 45.2886 46.6607 45.2323 46.6607 45.1723C46.6599 44.7637 46.6375 44.3553 46.5936 43.949L46.5829 43.8927C46.2749 41.2775 45.0439 38.858 43.1114 37.0693C43.0988 37.0739 43.0859 37.0775 43.0728 37.08C41.821 37.4495 40.5428 37.8283 39.2482 38.2142L39.184 38.2334C37.8948 38.6177 36.5933 39.0085 35.2794 39.4061L35.1503 39.446C33.8516 39.8388 32.5484 40.2356 31.2407 40.6365L31.0981 40.6807C29.8023 41.0788 28.511 41.4787 27.2242 41.8805C27.16 41.8998 27.0965 41.9204 27.033 41.9411C25.7619 42.3377 24.5039 42.7345 23.259 43.1316L23.0514 43.1987C21.8132 43.5938 20.5927 43.9883 19.4001 44.3777C19.3395 44.3984 19.281 44.4177 19.2203 44.4369C18.0163 44.8321 16.8387 45.2216 15.6988 45.6082L15.6082 45.6381C14.4441 46.0319 13.3129 46.4227 12.2315 46.8008C13.7501 47.3714 15.2409 47.9784 16.6682 48.5897L16.6996 48.6018" fill="white"/>
<path d="M47.9311 43.4874C47.9944 43.9433 48.032 44.4024 48.0438 44.8626V44.8926C48.0438 44.986 48.0573 45.078 48.0573 45.1714C48.0573 45.5602 48.0131 45.939 47.9775 46.3191L70.3035 39.06L70.7714 38.9073L77.2467 36.8031C77.2524 36.7796 77.2552 36.7553 77.2588 36.7318C77.2681 36.684 77.2781 36.6355 77.2866 36.5891C77.2923 36.5577 77.2973 36.5271 77.3045 36.4957L64.1492 31.0454L63.7262 31.1624L62.9794 31.3714L62.2768 31.5675C62.2454 31.5768 62.2098 31.5868 62.1762 31.5946C61.9936 31.6467 61.7946 31.7016 61.5899 31.7594L61.107 31.8957L60.7297 32.0012L60.286 32.126L59.3402 32.3921L59.3045 32.4028C58.9229 32.5098 58.5199 32.6239 58.1048 32.7416L58.0113 32.768C57.6418 32.8722 57.2588 32.982 56.8651 33.0933L56.4521 33.2117C56.1924 33.283 55.9307 33.36 55.661 33.4371L54.9927 33.6282L54.2416 33.8422L53.6046 34.0248C53.3136 34.1083 53.0133 34.1953 52.7123 34.2802L52.0974 34.4571L50.6302 34.8801C50.4547 34.9307 50.2735 34.9828 50.0959 35.0349L49.0317 35.3423L48.3184 35.5513C47.9832 35.6476 47.6486 35.746 47.3077 35.8452L46.7199 36.0156C46.3055 36.1376 45.8854 36.2603 45.4624 36.3837C45.2869 36.4358 45.1122 36.4864 44.9367 36.5378C44.8418 36.5663 44.7448 36.5955 44.6514 36.6226C46.4204 38.4974 47.5639 40.8751 47.924 43.4274C47.9282 43.4481 47.9311 43.4674 47.9332 43.4881" fill="white"/>
<path d="M65.4481 73.4265C63.0229 73.8916 60.4073 76.2212 60.4073 80.2385C60.4073 80.4245 60.4812 80.603 60.6127 80.7345C60.7443 80.8661 60.9227 80.94 61.1088 80.94C61.2948 80.94 61.4733 80.8661 61.6048 80.7345C61.7364 80.603 61.8103 80.4245 61.8103 80.2385C61.8103 77.0194 63.8325 75.1663 65.7134 74.8046C67.7642 74.4109 69.6658 75.6121 70.5638 77.8647C71.2458 79.3881 71.3372 81.1107 70.8202 82.6978C70.3032 84.2849 69.2148 85.6232 67.7663 86.4527C66.6282 87.1357 65.3267 87.4985 63.9994 87.5027C62.6254 87.4432 61.2807 87.0864 60.058 86.4568C58.8353 85.8273 57.7637 84.9401 56.9171 83.8563C54.7259 81.1508 55.0911 78.854 55.783 77.4017C57.3922 74.0314 62.0721 71.945 65.4838 71.945C65.6698 71.945 65.8482 71.8711 65.9798 71.7396C66.1114 71.608 66.1853 71.4296 66.1853 71.2435C66.1853 71.0575 66.1114 70.879 65.9798 70.7475C65.8482 70.6159 65.6698 70.542 65.4838 70.542C61.6441 70.542 56.3586 72.9351 54.5155 76.799C53.6474 78.6129 53.1723 81.4661 55.8186 84.7394C56.7912 85.9917 58.0278 87.0142 59.4406 87.7341C60.8534 88.454 62.4075 88.8535 63.9923 88.9043C65.5689 88.9022 67.1157 88.4738 68.4689 87.6646C70.2136 86.6714 71.5269 85.0651 72.1536 83.1578C72.7802 81.2505 72.6756 79.1784 71.8599 77.3439C70.7015 74.4366 68.1893 72.8973 65.4402 73.4258" fill="#1A94AB"/>
<path d="M37.8081 56.0284C38.5392 55.8759 39.2527 55.6486 39.9372 55.35C39.9315 55.3365 39.9287 55.3229 39.9237 55.3086C39.8509 55.1122 39.7584 54.9237 39.6476 54.7459L39.6434 54.7401C39.5423 54.5857 39.4254 54.4423 39.2946 54.3122C39.2617 54.2808 39.2289 54.2515 39.1947 54.223C39.0936 54.1348 38.9831 54.058 38.8652 53.994C38.8238 53.9719 38.7838 53.9463 38.7403 53.927C38.587 53.8566 38.4227 53.8134 38.2546 53.7993C38.2232 53.7993 38.189 53.7993 38.1569 53.7993C37.8863 53.8119 37.6216 53.8828 37.3809 54.0072C37.1402 54.1315 36.9292 54.3064 36.7624 54.5197C36.26 55.1351 35.9685 55.8954 35.9307 56.6889C35.8208 58.3294 36.6996 59.7817 37.8501 59.8602C38.1363 59.8597 38.4188 59.7949 38.6766 59.6706C38.9344 59.5463 39.1609 59.3656 39.3395 59.1419C39.8441 58.5276 40.1368 57.7668 40.174 56.9728C40.1783 56.9086 40.1683 56.8479 40.174 56.7859C39.4998 57.0534 38.8033 57.2611 38.0927 57.4064C38.0457 57.4162 37.9979 57.4212 37.95 57.4214C37.7761 57.4208 37.6087 57.3557 37.48 57.2388C37.3513 57.1219 37.2705 56.9614 37.2533 56.7884C37.2361 56.6154 37.2837 56.4421 37.3868 56.3021C37.4899 56.1621 37.6413 56.0653 37.8116 56.0305" fill="white"/>
<path d="M69.4112 45.1109C70.1669 44.8909 70.8971 44.5913 71.5896 44.2171C71.5511 44.1608 71.514 44.1059 71.4726 44.0552C71.4312 44.0046 71.4013 43.9618 71.3627 43.9204C71.2608 43.8095 71.1467 43.7104 71.0225 43.6251C71.0132 43.6194 71.0047 43.6116 70.9961 43.6058C70.9047 43.5487 70.8071 43.5023 70.7051 43.4675C70.6864 43.4575 70.6671 43.4487 70.6473 43.4411C70.532 43.4039 70.4118 43.3844 70.2907 43.3833C70.2657 43.3833 70.2415 43.3833 70.2193 43.3833C69.26 43.4454 68.5238 44.6736 68.6102 46.0646C68.6965 47.4555 69.5888 48.5411 70.5446 48.5204C71.504 48.4584 72.2401 47.2315 72.1524 45.8392C72.1452 45.7322 72.126 45.6302 72.111 45.5275C71.3743 45.913 70.6008 46.2236 69.8021 46.4547C69.7398 46.4735 69.6752 46.4831 69.6102 46.4833C69.4409 46.4833 69.2773 46.4222 69.1496 46.3111C69.0218 46.2001 68.9385 46.0466 68.915 45.879C68.8915 45.7114 68.9293 45.5409 69.0215 45.399C69.1137 45.257 69.2542 45.1532 69.4169 45.1066" fill="white"/>
<path d="M67.369 68.1109L67.384 68.8135V68.1123C67.4267 68.1124 67.4681 68.0984 67.5022 68.0727C67.5361 68.0469 67.5608 68.0107 67.5723 67.9697C69.0374 63.0415 68.7171 60.4566 67.929 59.6776C67.8132 59.5568 67.6657 59.4712 67.5034 59.4307C67.3411 59.3902 67.1706 59.3964 67.0117 59.4487C66.1279 59.7233 65.2926 61.1663 64.7812 63.3104L64.6464 63.8775L64.0672 63.8468C63.7626 63.8304 63.4759 63.8219 63.2112 63.8219C61.7768 63.8219 60.8938 64.0487 60.5849 64.4988C60.5099 64.6122 60.4675 64.7439 60.4622 64.8798C60.4569 65.0156 60.489 65.1503 60.5549 65.2691C61.0956 66.4047 64.1271 67.8598 67.3726 68.1095" fill="white"/>
<path d="M67.2327 69.5068L67.3825 69.514C67.7273 69.5131 68.0627 69.4013 68.3392 69.1951C68.6156 68.989 68.8183 68.6994 68.9175 68.3691C69.7492 65.5716 70.8534 60.5942 68.9175 58.6812C68.6212 58.381 68.2476 58.1687 67.838 58.068C67.4284 57.9673 66.9989 57.982 66.5972 58.1106C65.274 58.5207 64.229 60.0079 63.5621 62.4253C61.3509 62.3732 60.0613 62.7819 59.425 63.7092C59.2108 64.0255 59.0846 64.3932 59.0596 64.7744C59.0345 65.1556 59.1114 65.5367 59.2824 65.8783C60.2096 67.817 64.1435 69.2757 67.232 69.5118M60.5791 64.5052C60.8894 64.0551 61.771 63.8283 63.2055 63.8283C63.4715 63.8283 63.759 63.8369 64.0614 63.8519L64.6449 63.8818L64.7811 63.3147C65.2933 61.1706 66.1264 59.7276 67.0116 59.453C67.1703 59.4007 67.3406 59.3945 67.5026 59.4351C67.6647 59.4756 67.812 59.5612 67.9275 59.6819C68.7121 60.4601 69.0324 63.0451 67.5708 67.974C67.559 68.0152 67.5341 68.0514 67.4999 68.0771C67.4656 68.1029 67.4239 68.1167 67.3811 68.1166V68.8178L67.3661 68.1152C64.1206 67.8655 61.0891 66.4104 60.5499 65.2749C60.4834 65.1562 60.451 65.0216 60.456 64.8857C60.461 64.7498 60.5034 64.6179 60.5784 64.5045" fill="#1A94AB"/>
<path d="M12.5725 59.9441L14.5604 60.8157L16.5483 61.6874L18.5349 62.5576L20.5228 63.4292L22.5108 64.3009L22.8624 64.4549L24.2255 65.0569L25.5351 65.6276L25.5458 65.6333C25.5173 64.9913 25.4852 64.0997 25.4645 63.0868C25.4481 62.3678 25.4381 61.5889 25.4381 60.7629C25.4381 60.7123 25.4381 60.6631 25.4381 60.6103C25.4381 60.1766 25.4438 59.7636 25.4517 59.3663C25.4517 59.1865 25.4588 59.0097 25.4638 58.8285C25.4695 58.6145 25.4759 58.4069 25.483 58.2051C25.5052 57.6052 25.5337 57.0588 25.5644 56.573C25.5715 56.4546 25.5729 56.3341 25.5808 56.2164C25.5943 56.0252 25.6093 55.8391 25.625 55.6522C25.6343 55.5338 25.6457 55.4204 25.6564 55.3034C25.6714 55.1315 25.6835 54.9945 25.6977 54.8533C25.707 54.7527 25.7156 54.6472 25.7263 54.5473L25.7348 54.4446C25.1185 54.1343 23.9074 53.5273 22.5086 52.844C21.8716 52.5308 21.199 52.2056 20.5207 51.8803C19.8423 51.555 19.174 51.2383 18.5327 50.9437C18.2581 50.8161 17.997 50.6991 17.7395 50.5828C17.5691 50.5072 17.4029 50.4316 17.2303 50.356L17.196 50.341C16.9007 50.2119 16.5976 50.0828 16.2966 49.9523C16.2195 49.9209 16.1375 49.8888 16.0605 49.856C15.554 49.6484 15.049 49.4458 14.5583 49.249C13.8514 48.9672 13.1773 48.704 12.5703 48.4693C11.9055 48.2111 11.3235 47.9871 10.8748 47.8174L11.1024 59.3014L12.5725 59.9441Z" fill="white"/>
</svg>
