<svg width="91" height="14" viewBox="0 0 91 14" fill="none" xmlns="http://www.w3.org/2000/svg">
<g clip-path="url(#clip0_7_454)">
<path d="M5.78356 0L3.99786 4.41147L4.57764e-05 5.11763L2.88914 8.55103L2.20684 13.4L5.78356 11.1111L9.35961 13.4L8.67665 8.55103L11.5684 5.11763L7.57058 4.41147L5.78356 0Z" fill="#0096AD"/>
<path d="M25.6053 0L23.8163 4.41147L19.8185 5.11763L22.7102 8.55103L22.028 13.4L25.6053 11.1111L29.1807 13.4L28.4984 8.55103L31.3902 5.11763L27.3924 4.41147L25.6053 0Z" fill="#0096AD"/>
<path d="M45.428 0L43.6383 4.41147L39.6405 5.11763L42.5323 8.55103L41.85 13.4L45.428 11.1111L49.0034 13.4L48.3211 8.55103L51.2122 5.11763L47.2144 4.41147L45.428 0Z" fill="#0096AD"/>
<path d="M65.246 0L63.4603 4.41147L59.4625 5.11763L62.3543 8.55103L61.6747 13.4L65.2487 11.1111L68.8241 13.4L68.1378 8.55103L71.0295 5.11763L67.0317 4.41147L65.246 0Z" fill="#0096AD"/>
<path d="M85.0627 0L83.277 4.41147L79.2792 5.11763L82.1716 8.55103L81.4893 13.4L85.0634 11.1111L88.6387 13.4L87.9565 8.55103L90.8455 5.11763L86.8477 4.41147L85.0627 0Z" fill="#0096AD"/>
</g>
<defs>
<clipPath id="clip0_7_454">
<rect width="90.6192" height="13.4" fill="white"/>
</clipPath>
</defs>
</svg>
