<svg width="32" height="32" viewBox="0 0 32 32" fill="none" xmlns="http://www.w3.org/2000/svg">
<mask id="mask0_1159_635" style="mask-type:luminance" maskUnits="userSpaceOnUse" x="0" y="0" width="32" height="32">
<path d="M32 0H0V32H32V0Z" fill="white"/>
</mask>
<g mask="url(#mask0_1159_635)">
<path d="M16 0C12.8355 0 9.74207 0.938384 7.11088 2.69649C4.4797 4.45459 2.42894 6.95345 1.21793 9.87706C0.00693253 12.8007 -0.309921 16.0177 0.307443 19.1214C0.924806 22.2251 2.44866 25.0761 4.6863 27.3137C6.92394 29.5513 9.77487 31.0752 12.8786 31.6926C15.9823 32.3099 19.1993 31.9931 22.1229 30.7821C25.0466 29.5711 27.5454 27.5203 29.3035 24.8891C31.0616 22.2579 32 19.1645 32 16C31.9952 11.758 30.308 7.69113 27.3084 4.69159C24.3089 1.69204 20.242 0.00479412 16 0ZM16 30.7925C13.0743 30.7925 10.2144 29.9249 7.78176 28.2995C5.34915 26.6741 3.45317 24.3638 2.33356 21.6608C1.21396 18.9579 0.921017 15.9836 1.49179 13.1141C2.06256 10.2447 3.4714 7.60892 5.54016 5.54016C7.60893 3.47139 10.2447 2.06255 13.1141 1.49178C15.9836 0.92101 18.9579 1.21395 21.6608 2.33356C24.3638 3.45316 26.6741 5.34915 28.2995 7.78175C29.9249 10.2144 30.7925 13.0743 30.7925 16C30.788 19.9218 29.2281 23.6817 26.4549 26.4549C23.6818 29.2281 19.9218 30.788 16 30.7925Z" fill="#1F94AA"/>
<path d="M20.7246 10.2001C19.9724 10.6847 19.2573 11.2248 18.5854 11.8158C16.7681 13.3941 15.117 15.1542 13.658 17.0686L10.5788 14.9186L9.60608 15.8792L9.64714 15.9353C9.67612 15.9752 12.5314 19.8598 13.6055 21.6899L13.6761 21.8106L13.7449 21.6899C13.789 21.6126 18.1827 13.9386 22.2364 10.3281L22.394 10.188H20.7439L20.7246 10.2001Z" fill="#1F94AA"/>
</g>
</svg>
