<svg width="32" height="32" viewBox="0 0 32 32" fill="none" xmlns="http://www.w3.org/2000/svg">
<mask id="mask0_1159_644" style="mask-type:luminance" maskUnits="userSpaceOnUse" x="0" y="0" width="32" height="32">
<path d="M32 0H0V32H32V0Z" fill="white"/>
</mask>
<g mask="url(#mask0_1159_644)">
<path d="M16 0C12.8355 0 9.74207 0.938384 7.11088 2.69649C4.4797 4.45459 2.42894 6.95345 1.21793 9.87706C0.00693253 12.8007 -0.309921 16.0177 0.307443 19.1214C0.924806 22.2251 2.44866 25.0761 4.6863 27.3137C6.92394 29.5513 9.77487 31.0752 12.8786 31.6926C15.9823 32.3099 19.1993 31.9931 22.1229 30.7821C25.0466 29.5711 27.5454 27.5203 29.3035 24.8891C31.0616 22.2579 32 19.1645 32 16C31.9952 11.758 30.308 7.69113 27.3084 4.69159C24.3089 1.69204 20.242 0.00479412 16 0ZM16 30.7925C13.0743 30.7925 10.2144 29.9249 7.78176 28.2995C5.34915 26.6741 3.45317 24.3638 2.33356 21.6608C1.21396 18.9579 0.921017 15.9836 1.49179 13.1141C2.06256 10.2447 3.4714 7.60892 5.54016 5.54016C7.60893 3.47139 10.2447 2.06255 13.1141 1.49178C15.9836 0.92101 18.9579 1.21395 21.6608 2.33356C24.3638 3.45316 26.6741 5.34915 28.2995 7.78175C29.9249 10.2144 30.7925 13.0743 30.7925 16C30.788 19.9218 29.2281 23.6817 26.4549 26.4549C23.6818 29.2281 19.9218 30.788 16 30.7925Z" fill="#2894A9"/>
<path d="M16.7083 14.8389L15.6052 12.605L14.5033 14.8389L12.0363 15.2012L13.8216 16.9383L13.399 19.395L15.6052 18.234L17.8114 19.395L17.3887 16.9383L19.1723 15.1976L16.7083 14.8389Z" fill="#2894A9"/>
<path d="M7.69152 16.108L6.89575 14.4954L6.09816 16.1086L4.31824 16.3671L5.60427 17.6223L5.30239 19.395L6.89454 18.5582L8.48428 19.395L8.18239 17.6223L9.47084 16.3671L7.69152 16.108Z" fill="#2894A9"/>
<path d="M25.2981 16.108L24.5023 14.4954L23.7053 16.1086L21.9254 16.3671L23.2115 17.6223L22.9096 19.395L24.5017 18.5582L26.0915 19.395L25.7896 17.6223L27.0774 16.3665L25.2981 16.108Z" fill="#2894A9"/>
</g>
</svg>
