<svg width="195" height="156" viewBox="0 0 195 156" fill="none" xmlns="http://www.w3.org/2000/svg">
<path d="M33.2492 5.72102C33.8704 9.87988 33.0327 14.2128 32.3247 18.303C30.838 26.8925 28.8013 35.4205 26.6816 43.8701C22.4739 60.6431 17.5989 77.3397 10.8823 93.276C9.57483 96.3783 8.6432 100.933 6.33667 103.537C0.611907 110 16.7012 89.7111 22.2131 83.0642C33.744 69.159 45.667 55.418 59.2078 43.4189C66.4039 37.0422 74.3293 31.1545 83.3963 27.7392C87.728 26.1075 92.1777 25.5579 96.3563 27.9701C102.931 31.7654 102.264 39.4993 100.594 45.9325C93.5174 73.191 73.2868 96.5766 53.6687 115.804C49.0315 120.349 44.0268 124.348 38.8794 128.278C37.445 129.373 34.6365 130.769 33.6951 132.436C31.0257 137.165 41.9213 125.357 46.1921 122.014C82.8108 93.3477 123.823 67.7296 167.927 52.4411C169.456 51.9111 190.31 43.5265 189.523 51.8415C189.211 55.1351 187.251 58.5897 185.792 61.2799C181.475 69.2364 177.132 75.8293 171.733 83.2577C157.732 102.52 141.652 120.61 121.994 134.212C115.021 139.037 107.646 143.306 100.26 147.457C98.734 148.315 95.5867 150.909 93.6214 150.865C90.7919 150.801 94.8937 145.184 96.5303 142.872C106.647 128.58 120.804 115.555 136.15 107.126C142.904 103.416 151.913 99.63 159.775 101.971C163.529 103.088 166.707 106.05 169.84 108.291C170.111 108.485 174.998 112.275 172.74 110.526" stroke="#29A2BA" stroke-width="10" stroke-linecap="round"/>
</svg>
